<svg width="26" height="24" viewBox="0 0 26 24" fill="none" xmlns="http://www.w3.org/2000/svg">
<path d="M18.665 0.984863C17.3084 0.984863 16.0647 1.41475 14.9684 2.2626C13.9174 3.07544 13.2176 4.11074 12.8057 4.86357C12.3937 4.11069 11.6939 3.07544 10.6429 2.2626C9.54663 1.41475 8.30288 0.984863 6.94629 0.984863C3.16055 0.984863 0.305664 4.0814 0.305664 8.1877C0.305664 12.6239 3.86733 15.6591 9.25923 20.254C10.1749 21.0343 11.2127 21.9188 12.2914 22.8621C12.4336 22.9866 12.6162 23.0552 12.8057 23.0552C12.9951 23.0552 13.1777 22.9866 13.3199 22.8622C14.3987 21.9187 15.4365 21.0343 16.3527 20.2535C21.744 15.6591 25.3057 12.6239 25.3057 8.1877C25.3057 4.0814 22.4508 0.984863 18.665 0.984863Z" fill="black"/>
</svg>
