<svg width="25" height="25" viewBox="0 0 25 25" fill="none" xmlns="http://www.w3.org/2000/svg">
<g clip-path="url(#clip0)">
<path d="M23.2928 13.7589H1.01273C0.453702 13.7589 0 13.3052 0 12.7461C0 12.1871 0.453702 11.7334 1.01273 11.7334H23.2928C23.8519 11.7334 24.3056 12.1871 24.3056 12.7461C24.3056 13.3052 23.8519 13.7589 23.2928 13.7589Z" fill="black"/>
<path d="M23.2928 5.89997H1.01273C0.453702 5.89997 0 5.44627 0 4.88724C0 4.32821 0.453702 3.87451 1.01273 3.87451H23.2928C23.8519 3.87451 24.3056 4.32821 24.3056 4.88724C24.3056 5.44627 23.8519 5.89997 23.2928 5.89997Z" fill="black"/>
<path d="M23.2928 21.6178H1.01273C0.453702 21.6178 0 21.164 0 20.605C0 20.046 0.453702 19.5923 1.01273 19.5923H23.2928C23.8519 19.5923 24.3056 20.046 24.3056 20.605C24.3056 21.164 23.8519 21.6178 23.2928 21.6178Z" fill="black"/>
</g>
<defs>
<clipPath id="clip0">
<rect width="24.3056" height="24.3056" fill="white" transform="translate(0 0.52002)"/>
</clipPath>
</defs>
</svg>
