<svg width="26" height="24" viewBox="0 0 26 24" fill="none" xmlns="http://www.w3.org/2000/svg">
<path d="M25.1516 4.58431C25.0007 4.3831 24.7597 4.26404 24.5035 4.26404H6.45548C6.42052 4.26404 6.38561 4.2661 6.35198 4.27051L5.60921 2.18885C5.53223 1.97356 5.36271 1.80195 5.14485 1.71856L1.40147 0.288871C0.988912 0.131836 0.523368 0.328851 0.361342 0.729462C0.199596 1.13029 0.402184 1.58318 0.814521 1.7407L4.21437 3.03919L8.37585 14.7012C8.19217 14.7634 8.03652 14.9004 7.96563 15.0921L6.76242 18.3416C6.68868 18.5408 6.71906 18.7622 6.84455 18.9353C6.96987 19.1085 7.17369 19.2115 7.39133 19.2115H8.00922C7.62631 19.6258 7.39133 20.1714 7.39133 20.7713C7.39133 22.0614 8.47101 23.1109 9.79777 23.1109C11.1245 23.1109 12.2042 22.0614 12.2042 20.7713C12.2042 20.1714 11.9692 19.6258 11.5863 19.2115H16.8329C16.4498 19.6258 16.2148 20.1714 16.2148 20.7713C16.2148 22.0614 17.2942 23.1109 18.6213 23.1109C19.9483 23.1109 21.0277 22.0614 21.0277 20.7713C21.0277 20.1714 20.7927 19.6258 20.4099 19.2115H21.1614C21.5306 19.2115 21.8298 18.9206 21.8298 18.5616C21.8298 18.2027 21.5306 17.9118 21.1614 17.9118H8.34245L9.08762 15.8994C9.18385 15.9388 9.2878 15.9621 9.39662 15.9621H21.1613C21.51 15.9621 21.8187 15.7431 21.925 15.4204L25.2672 5.28207C25.3456 5.0447 25.3026 4.78551 25.1516 4.58431ZM9.79777 21.8111C9.20791 21.8111 8.72826 21.3448 8.72826 20.7713C8.72826 20.1978 9.20791 19.7314 9.79777 19.7314C10.3876 19.7314 10.8673 20.1978 10.8673 20.7713C10.8673 21.3448 10.3876 21.8111 9.79777 21.8111ZM18.6212 21.8111C18.0314 21.8111 17.5517 21.3448 17.5517 20.7713C17.5517 20.1978 18.0314 19.7314 18.6212 19.7314C19.211 19.7314 19.6907 20.1978 19.6907 20.7713C19.6907 21.3448 19.211 21.8111 18.6212 21.8111ZM22.8259 7.57848H18.7327V5.82378H23.4043L22.8259 7.57848ZM21.6472 11.1528H18.7327V9.13817H22.3115L21.6472 11.1528ZM13.4295 11.1528V9.13817H17.1284V11.1528H13.4295ZM17.1284 12.7127V14.4024H13.4295V12.7127H17.1284ZM8.08889 9.13817H11.8253V11.1528H8.80788L8.08889 9.13817ZM13.4295 7.57848V5.82378H17.1284V7.57848H13.4295ZM11.8253 5.82378V7.57848H7.53215L6.90603 5.82378H11.8253ZM9.36456 12.7127H11.8253V14.4024H9.96746L9.36456 12.7127ZM18.7327 14.4024V12.7127H21.1333L20.5764 14.4024H18.7327Z" fill="black"/>
</svg>
