<svg width="35" height="32" viewBox="0 0 35 32" fill="none" xmlns="http://www.w3.org/2000/svg">
<path d="M34.7844 6.08413C34.5731 5.80267 34.2356 5.63611 33.877 5.63611H8.60975C8.56079 5.63611 8.51192 5.63901 8.46484 5.64517L7.42497 2.73323C7.31719 2.43207 7.07986 2.19201 6.77485 2.07536L1.53413 0.0754272C0.956546 -0.144243 0.304785 0.131353 0.0779493 0.691751C-0.148495 1.25245 0.135128 1.88597 0.7124 2.10633L5.47219 3.92273L11.2983 20.2362C11.0411 20.3233 10.8232 20.5149 10.724 20.7831L9.03945 25.3286C8.93622 25.6073 8.97875 25.917 9.15444 26.1592C9.32989 26.4014 9.61524 26.5455 9.91993 26.5455H10.785C10.2489 27.125 9.91993 27.8882 9.91993 28.7274C9.91993 30.5321 11.4315 32.0002 13.2889 32.0002C15.1464 32.0002 16.658 30.5321 16.658 28.7274C16.658 27.8882 16.329 27.125 15.7929 26.5455H23.1381C22.6018 27.125 22.2728 27.8882 22.2728 28.7274C22.2728 30.5321 23.784 32.0002 25.6419 32.0002C27.4996 32.0002 29.0109 30.5321 29.0109 28.7274C29.0109 27.8882 28.6819 27.125 28.1459 26.5455H29.1981C29.715 26.5455 30.1339 26.1385 30.1339 25.6364C30.1339 25.1343 29.7149 24.7274 29.1981 24.7274H11.2515L12.2947 21.9124C12.4295 21.9675 12.575 22 12.7273 22H29.1978C29.6861 22 30.1183 21.6936 30.267 21.2423L34.9462 7.0602C35.0559 6.72815 34.9957 6.36558 34.7844 6.08413ZM13.2889 30.1819C12.4631 30.1819 11.7916 29.5296 11.7916 28.7274C11.7916 27.9252 12.4631 27.2728 13.2889 27.2728C14.1147 27.2728 14.7862 27.9252 14.7862 28.7274C14.7862 29.5296 14.1147 30.1819 13.2889 30.1819ZM25.6418 30.1819C24.816 30.1819 24.1444 29.5296 24.1444 28.7274C24.1444 27.9252 24.816 27.2728 25.6418 27.2728C26.4675 27.2728 27.1391 27.9252 27.1391 28.7274C27.1391 29.5296 26.4675 30.1819 25.6418 30.1819ZM31.5283 10.2725H25.7978V7.81798H32.3381L31.5283 10.2725ZM29.8782 15.2725H25.7978V12.4543H30.8082L29.8782 15.2725ZM18.3733 15.2725V12.4543H23.5518V15.2725H18.3733ZM23.5518 17.4545V19.8182H18.3733V17.4545H23.5518ZM10.8965 12.4543H16.1275V15.2725H11.9031L10.8965 12.4543ZM18.3733 10.2725V7.81798H23.5518V10.2725H18.3733ZM16.1274 7.81798V10.2725H10.1171L9.24052 7.81798H16.1274ZM12.6825 17.4545H16.1274V19.8182H13.5265L12.6825 17.4545ZM25.7978 19.8183V17.4546H29.1588L28.379 19.8183H25.7978Z" fill="white"/>
</svg>
